<svg xmlns="http://www.w3.org/2000/svg" width="43" height="46" viewBox="0 0 43 46">
    <g fill="#000" fill-rule="evenodd">
        <path d="M19.273.747a2.564 2.564 0 0 0-1.755.607l-2.78 2.417c-.359.311-.4.807-.224 1.19l2.047 3.351 1.94 3.137-2.837-2.357-2.995-2.45c-.349-.31-.928-.343-1.287-.03L6.72 10.663c-.315.273-.438.764-.18 1.152l.868 1.543 1.41 2.526-2.306-1.747-1.37-1.03c-.347-.31-.889-.3-1.247.012l-2.96 2.572c-.493.429-.744.954-.838 1.572l-.007.082a2.426 2.426 0 0 0 .562 1.733l13.99 16.094-.045.039c.53.61 1.293.943 2.037.985a3.097 3.097 0 0 0 2.183-.749l5.336-4.638 8.478 12.922c.151.175.22.344.334.475.834.96 2.003 1.399 3.245 1.468 1.158.066 2.434-.278 3.489-.966.217-.112.397-.268.575-.424.18-.156.36-.312.5-.511.83-.95 1.347-2.165 1.444-3.321.103-1.24-.169-2.458-1.003-3.417-.114-.131-.227-.262-.424-.397L29.175 26.445l5.335-4.638a3.097 3.097 0 0 0 1.045-2.058 2.93 2.93 0 0 0-.692-2.155L20.911 1.544c-.417-.48-1.02-.721-1.638-.797zm20.28 37.275l.227.261c.493.567.641 1.28.579 2.023-.07.827-.425 1.595-.976 2.228l-.718.624c-.704.458-1.514.703-2.342.656-.744-.041-1.468-.33-1.961-.898l-.227-.261-8.585-13.136 2.152-1.87 11.85 10.373zM33.69 19.686c-.02.248-.13.574-.4.808L17.642 34.096a1.19 1.19 0 0 1-.855.284 1.158 1.158 0 0 1-.8-.377l-1.213-1.395 17.397-15.123 1.213 1.395.044-.039c.19.219.29.514.262.845zm-2.605-3.631L13.643 31.216 2.08 17.914c-.076-.087-.145-.257-.094-.378.052-.122.104-.244.194-.322l2.376-2.066.824.586 5.79 4.308c.432.314.98.22 1.308-.218a.873.873 0 0 0 .083-.99l-3.542-6.34-.465-.897 3.541-3.079 2.452 2.004 7.193 5.922c.387.354.98.22 1.3-.135a.934.934 0 0 0 .09-1.074l-4.824-7.904-1.644-2.706 2.152-1.87c.09-.079.262-.152.383-.104.165.01.286.058.362.145l11.526 13.259z"/>
        <path d="M37.918 37.962a1.58 1.58 0 1 1-2.385 2.072 1.58 1.58 0 0 1 2.385-2.072z"/>
    </g>
</svg>
