<svg xmlns="http://www.w3.org/2000/svg" xmlns:xlink="http://www.w3.org/1999/xlink" width="33" height="35" viewBox="0 0 33 35">
    <defs>
        <path id="a" d="M.004.016h32.962V25.84H.004z"/>
    </defs>
    <g fill="none" fill-rule="evenodd" transform="translate(0 .486)">
        <mask id="b" fill="#fff">
            <use xlink:href="#a"/>
        </mask>
        <path fill="#E23939" d="M29.083 19.714H8.733L6.467 7.585h24.88l-2.265 12.129zm3.52-13.257c-.31-.418-.767-.658-1.256-.658H6.135l-.51-2.728c-.106-.57-.457-1.047-.94-1.279L1.132.09C.722-.106.245.102.067.554c-.178.453.01.979.42 1.175L4.04 3.431l3.916 20.982c.155.827.822 1.426 1.586 1.426h19.391c.447 0 .81-.4.81-.893s-.363-.893-.81-.893H9.543L9.065 21.5h20.017c.765 0 1.432-.6 1.586-1.426l2.264-12.128a1.919 1.919 0 0 0-.33-1.49z" mask="url(#b)"/>
        <circle cx="12.559" cy="31.397" r="2.093" stroke="#E23939" stroke-width="1.5"/>
        <circle cx="25.117" cy="31.397" r="2.093" stroke="#E23939" stroke-width="1.5"/>
    </g>
</svg>
