<svg xmlns="http://www.w3.org/2000/svg" xmlns:xlink="http://www.w3.org/1999/xlink" width="18" height="16" viewBox="0 0 18 16">
    <defs>
        <path id="a" d="M0 0h17v15H0z"/>
    </defs>
    <g fill="none" fill-rule="evenodd" transform="translate(.314 .787)">
        <mask id="b" fill="#fff">
            <use xlink:href="#a"/>
        </mask>
        <path fill="#000" d="M12.777 3.35V.854h.055c.225 0 .406-.19.406-.423a.415.415 0 0 0-.406-.424h-.055V0H.487v.007H.406A.415.415 0 0 0 0 .43c0 .235.182.425.406.425h.08V15h12.291V7.815c.994.343 1.937.553 2.679.553.722 0 1.254-.195 1.46-.65.541-1.189-1.629-3.057-4.139-4.368zm-.614 11.006H1.1V3.166c.172.084.39.192.64.25v4.432a.34.34 0 0 0 .333.348.34.34 0 0 0 .333-.348V3.412c.064-.224-.013-.76.64-.358 1.138.7.755-.897.87-.627v3.71c0 .191.15.348.333.348a.341.341 0 0 0 .334-.348v-4.01c-.103-.251.304-.368.705-.24.4.129.667.475.667.475h.003a.668.668 0 0 0 .288.78c.12.448.48.962 1.07 1.524.836.796 2.052 1.61 3.425 2.293.468.233.947.443 1.42.63v6.767zm0-7.455a16.87 16.87 0 0 1-1.157-.523c-1.32-.655-2.482-1.433-3.275-2.187-.467-.444-.718-.799-.833-1.062.18-.118.3-.325.3-.563a.653.653 0 0 0-.63-.665L7.4.644h4.763V6.9zm4.2.54c-.192.418-1.59.412-3.586-.304V4.071c2.523 1.371 3.81 2.875 3.585 3.37z" mask="url(#b)"/>
    </g>
</svg>
