<svg xmlns="http://www.w3.org/2000/svg" width="25" height="40" viewBox="0 0 25 40">
    <path fill="#4C4C4C" fill-rule="evenodd" d="M21.802 35.367c0 .532-.388.966-.867.966H3.45c-.479 0-.868-.434-.868-.966V4.245c0-.533.39-.967.868-.967h7.957a.83.83 0 0 1 .614.284l9.528 10.616c.162.18.254.43.254.684v20.505zm1.48-23.12L13.754 1.627C13.126.93 12.293.545 11.406.545H3.449c-1.832 0-3.32 1.66-3.32 3.7v31.122c0 2.04 1.488 3.7 3.32 3.7h17.486c1.831 0 3.32-1.66 3.32-3.7V14.862c0-.974-.354-1.926-.972-2.616z"/>
</svg>
