<svg xmlns="http://www.w3.org/2000/svg" xmlns:xlink="http://www.w3.org/1999/xlink" width="31" height="27" viewBox="0 0 31 27">
    <defs>
        <path id="a" d="M0 0h29.99v26.462H0z"/>
    </defs>
    <g fill="none" fill-rule="evenodd" transform="translate(.314 -.055)">
        <mask id="b" fill="#fff">
            <use xlink:href="#a"/>
        </mask>
        <path fill="#000" d="M22.541 5.91V1.507h.097c.397 0 .716-.335.716-.747 0-.415-.32-.748-.716-.748h-.097V0H.86v.012H.716C.32.012 0 .347 0 .76c0 .414.32.75.716.75h.143v24.952H22.54V13.787c1.754.606 3.416.975 4.725.975 1.274 0 2.213-.344 2.578-1.147.953-2.096-2.875-5.392-7.303-7.705zm-1.084 19.417H1.943V5.586c.303.148.688.339 1.129.44v7.82c0 .338.262.614.588.614.324 0 .585-.276.585-.615V6.02c.114-.395-.022-1.34 1.13-.632C7.383 6.622 6.707 3.805 6.91 4.282v6.545c0 .337.264.613.587.613a.602.602 0 0 0 .588-.613V3.754c-.181-.445.538-.651 1.245-.426.707.228 1.177.839 1.177.839l.004-.002a1.178 1.178 0 0 0 .509 1.377c.21.79.845 1.698 1.887 2.69 1.475 1.404 3.621 2.84 6.043 4.044.826.412 1.67.782 2.506 1.111v11.94zm0-13.152a29.76 29.76 0 0 1-2.04-.923c-2.328-1.156-4.38-2.528-5.778-3.859-.824-.782-1.268-1.409-1.47-1.872.316-.209.529-.575.529-.994 0-.644-.497-1.166-1.112-1.174l1.468-2.217h8.403v11.039zm7.409.952c-.337.737-2.805.728-6.325-.536V7.18c4.45 2.42 6.722 5.073 6.325 5.946z" mask="url(#b)"/>
    </g>
</svg>
