<svg xmlns="http://www.w3.org/2000/svg" xmlns:xlink="http://www.w3.org/1999/xlink" width="79" height="84" viewBox="0 0 79 84">
    <defs>
        <path id="a" d="M0 0h78.878v83.03H0z"/>
    </defs>
    <g fill="none" fill-rule="evenodd">
        <mask id="b" fill="#fff">
            <use xlink:href="#a"/>
        </mask>
        <path fill="#0A090B" d="M7.733 12.18c0-2.346.994-4.581 2.541-6.146 1.547-1.564 3.646-2.57 6.076-2.57h41.76c2.32 0 4.529 1.006 6.075 2.57 1.547 1.565 2.541 3.688 2.541 6.147v1.229c0 2.347-.994 4.582-2.54 6.146-1.547 1.565-3.646 2.57-6.077 2.57H16.24c-2.32 0-4.529-1.005-6.075-2.57-1.547-1.564-2.541-3.688-2.541-6.146v-1.23h.11zm38.003 37.325c-.22.559-.552 1.006-.994 1.453-.773.894-1.878 1.34-3.093 1.453-.995 0-1.657.782-1.657 1.788v21.344c0 1.006-.442 1.9-1.105 2.57-.663.67-1.547 1.118-2.541 1.118s-1.878-.447-2.54-1.118c-.664-.67-1.106-1.564-1.106-2.57V54.087c0-1.006-.773-1.788-1.767-1.788h-.11c-1.216-.112-2.21-.559-2.984-1.453-.441-.447-.773-.894-.994-1.453h18.891v.112zM1.768 14.527h2.651c.331 2.906 1.547 5.476 3.425 7.488 2.21 2.235 5.192 3.576 8.506 3.576h41.76c3.314 0 6.296-1.341 8.506-3.576a12.114 12.114 0 0 0 3.425-7.04c1.104.335 2.21.893 3.093 1.787 0 0 0 .112.11.112 1.326 1.453 2.1 3.576 2.1 5.923s-.774 4.358-2.1 5.923c-1.215 1.452-2.872 2.346-4.75 2.346H36.567c-.994 0-1.768.783-1.768 1.788l-.11 13.299h-9.832c-.995 0-1.768.782-1.768 1.788 0 2.235.884 4.246 2.32 5.699a7.149 7.149 0 0 0 3.867 2.235v19.891c0 2.012.773 3.8 2.099 5.14a7.052 7.052 0 0 0 5.081 2.124 7.052 7.052 0 0 0 5.082-2.123 7.216 7.216 0 0 0 2.1-5.14V55.65c1.435-.335 2.872-1.229 3.866-2.235a8.067 8.067 0 0 0 2.32-5.699c0-1.006-.774-1.788-1.768-1.788h-9.832l.11-11.51h30.16c2.872 0 5.524-1.341 7.402-3.576 1.767-2.123 2.982-5.029 2.982-8.158 0-3.24-1.104-6.146-2.982-8.158l-.11-.111c-1.547-1.677-3.425-2.794-5.635-3.241-.22-3.017-1.436-5.7-3.425-7.599C64.516 1.341 61.534 0 58.22 0H16.24c-3.315 0-6.297 1.341-8.507 3.576-1.878 1.9-3.093 4.582-3.425 7.487h-2.54c-.995 0-1.768.782-1.768 1.788 0 .894.773 1.676 1.768 1.676z" mask="url(#b)"/>
    </g>
</svg>
