<svg xmlns="http://www.w3.org/2000/svg" width="21" height="21" viewBox="0 0 21 21">
    <defs>
        <linearGradient id="a" x1="0%" x2="104.623%" y1="13.787%" y2="79.18%">
            <stop offset="0%" stop-color="#FBAB33"/>
            <stop offset="43.778%" stop-color="#EF3B2B"/>
            <stop offset="100%" stop-color="#4A1997"/>
        </linearGradient>
    </defs>
    <path fill="url(#a)" fill-rule="evenodd" d="M1101.039 62.024c-3.028-3.029-3.028-7.956 0-10.984a7.744 7.744 0 0 1 5.492-2.272c1.99 0 3.979.757 5.493 2.272 3.028 3.028 3.028 7.955 0 10.984-3.028 3.028-7.955 3.028-10.985 0m16.702 4.466l-3.873-3.872c3.109-3.743 2.913-9.322-.593-12.829-3.718-3.718-9.768-3.72-13.487 0-3.717 3.718-3.717 9.767 0 13.486a9.505 9.505 0 0 0 6.743 2.788 9.51 9.51 0 0 0 6.087-2.195l3.873 3.873a.88.88 0 0 0 1.25 0 .884.884 0 0 0 0-1.25" transform="translate(-1097 -47)"/>
</svg>
