<svg xmlns="http://www.w3.org/2000/svg" xmlns:xlink="http://www.w3.org/1999/xlink" width="22" height="17" viewBox="0 0 22 17">
    <defs>
        <path id="a" d="M.004.023H14.45v15.945H.004z"/>
    </defs>
    <g fill="none" fill-rule="evenodd">
        <path fill="#000" d="M14.796 11.917l6.518-5.76-4.066-3.979-2.452 9.74zm5.044-5.794l-3.233 2.856 1.216-4.83 2.017 1.974zM16.969 2.061l-.023-.005-5.75-1.27-.02.085 3.517 10.35 2.276-9.16zm-4.279.06l3.031.67-1.184 4.765L12.69 2.12z"/>
        <g transform="translate(.314 .787)">
            <mask id="b" fill="#fff">
                <use xlink:href="#a"/>
            </mask>
            <path fill="#000" d="M4.772 1.706l.204.601 9.005 8.504.006-.017L10.333.024l-5.56 1.682zm1.581.535l3.318-1.003 2.065 6.088L6.353 2.24zM14.419 12.099l.03-.03-.015-.015L4.128 2.322l-.01.01L0 6.22l10.321 9.747 4.098-3.87zM4.129 3.687l8.875 8.382-2.683 2.534L1.446 6.22l2.682-2.534z" mask="url(#b)"/>
        </g>
        <path fill="#000" d="M10.451 11.917c.4 0 .725.312.725.696 0 .384-.325.695-.725.695-.4 0-.724-.311-.724-.695 0-.384.325-.696.724-.696z"/>
    </g>
</svg>
