<svg xmlns="http://www.w3.org/2000/svg" xmlns:xlink="http://www.w3.org/1999/xlink" width="16" height="15" viewBox="0 0 16 15">
    <defs>
        <path id="a" d="M0 0h15v14H0z"/>
    </defs>
    <g fill="none" fill-rule="evenodd" transform="translate(.314 .787)">
        <mask id="b" fill="#fff">
            <use xlink:href="#a"/>
        </mask>
        <path fill="#000" d="M.568 13.864l.45-.22-.453-.88.632-1.228h1.2l.638 1.237-.45.87.451.221.002-.004.01.004.419-.813h1.209l.42.813.45-.22-.443-.86.661-1.281h1.188l.661 1.281-.443.86.45.22.42-.812h1.209l.42.813.45-.221-.443-.86.644-1.248h1.203l.644 1.248L11.54 14h.578l.49-.949h1.195l.418.813.451-.22-.443-.86L15 11.29l-.769-1.49L15 8.31l-.76-1.472.76-1.473-.76-1.473.76-1.473-.768-1.49.296-.573-.45-.22-.275.53h-1.209l-.274-.53h-.004l-.45.22.286.557-.633 1.227H10.31L9.682.922l.293-.566.173-.356h-.565L9.32.51l-.08.157h-1.2L7.766.135 7.76.14 7.757.135l-.45.222.287.556L6.96 2.14H5.751L5.118.913l.288-.556-.451-.222-.001.002L4.95.135l-.275.532H3.478L3.204.135 3.124 0h-.565l.471.913-.633 1.227h-1.2L.565.913.852.356.4.136 0 .912l.768 1.49L0 3.891l.76 1.473L0 6.838.76 8.31 0 9.784l.768 1.49L0 12.764l.568 1.1zm4.108-1.347H3.478L2.84 11.28l.627-1.217h1.21l.633 1.227-.634 1.227zm5.011-5.68l.633-1.226h1.2l.632 1.227-.633 1.227H10.32l-.15-.293-.483-.934zm.19 1.484L9.25 9.537H8.04l-.632-1.226.632-1.227h1.2l.637 1.237zm-.216-2.547l-.422.818H8.04l-.633-1.227.633-1.227h1.2l.421.818.211.409-.21.409zM7.594 6.838L6.96 8.065H5.752l-.634-1.227.634-1.227H6.96l.634 1.227zm-2.918-.246H3.478l-.152-.293-.482-.934.634-1.227h1.198l.634 1.227-.634 1.227zm-1.198.492h1.198L5.31 8.31l-.634 1.226H3.478l-.633-1.226.633-1.227zm2.274 3.927l-.634-1.228.634-1.226H6.96l.634 1.226-.634 1.228H5.752zm3.497 1.506H8.04l-.633-1.227.633-1.227h1.2l.637 1.236-.628 1.218zm2.27-1.473H10.32l-.638-1.237.628-1.217h1.209l.633 1.227-.633 1.227zm2.917.246l-.633 1.227H12.63l-.651-1.262.615-1.192h1.21l.632 1.227zm0-2.98l-.633 1.227h-1.209l-.633-1.226.633-1.227h1.209l.633 1.227zm0-2.945l-.633 1.227h-1.209l-.633-1.227.633-1.227h1.209l.633 1.227zm-1.842-4.173h1.209l.633 1.227-.633 1.227h-1.209l-.633-1.227.633-1.227zM10.32 2.665h1.2l.632 1.227-.633 1.227H10.32l-.15-.293-.483-.934.633-1.227zM8.04 1.192H9.25l.628 1.217-.638 1.237H8.04l-.632-1.227.632-1.227zM6.96 2.665l.634 1.227-.634 1.227H5.752l-.634-1.227.634-1.227H6.96zM3.25 1.601l.228-.442h1.198l.634 1.227-.634 1.226H3.467L2.84 2.395l.41-.794zM.564 3.892l.633-1.227h1.209l.628 1.217-.638 1.237h-1.2L.565 3.892zm0 2.946l.633-1.227h1.199l.633 1.227-.633 1.227h-1.2L.565 6.838zm0 2.945l.633-1.226h1.199l.638 1.237-.628 1.216h-1.21L.565 9.783z" mask="url(#b)"/>
    </g>
</svg>
