<svg xmlns="http://www.w3.org/2000/svg" width="16" height="16" viewBox="0 0 16 16">
    <g fill="#000" fill-rule="evenodd">
        <path d="M14.202 8.009c-.278 0-.555.277-.555.555 0 .334.222.556.555.556.334 0 .556-.222.556-.556 0-.333-.222-.555-.556-.555zM13.091 8.009c-.277 0-.555.278-.555.555 0 .334.222.556.555.556.334 0 .556-.222.556-.556 0-.333-.222-.555-.556-.555z"/>
        <path d="M11.98 8.009c-.277 0-.555.278-.555.555 0 .334.222.556.555.556.334 0 .556-.222.556-.556 0-.333-.222-.555-.556-.555z"/>
        <path d="M11.98 8.009c-.277 0-.555.277-.555.555 0 .334.222.556.555.556.333 0 .556-.222.556-.556 0-.333-.223-.555-.556-.555zM10.87 8.009c-.279 0-.556.277-.556.555 0 .334.222.556.555.556.333 0 .556-.222.556-.556 0-.333-.223-.555-.556-.555zM9.758 8.009c-.278 0-.556.278-.556.555 0 .334.223.556.556.556.333 0 .556-.222.556-.556 0-.333-.222-.555-.556-.555z"/>
        <path d="M8.647 8.009c-.278 0-.556.278-.556.555 0 .334.223.556.556.556.333 0 .555-.222.555-.556 0-.333-.222-.555-.555-.555z"/>
        <path d="M8.647 8.009c-.278 0-.556.277-.556.555 0 .334.222.556.556.556.333 0 .555-.222.555-.556 0-.333-.222-.555-.555-.555zM14.202 6.898c-.278 0-.555.277-.555.555 0 .334.222.556.555.556.334 0 .556-.222.556-.556 0-.333-.222-.555-.556-.555zM13.091 6.898c-.277 0-.555.277-.555.555 0 .334.222.556.555.556.334 0 .556-.222.556-.556 0-.333-.222-.555-.556-.555z"/>
        <path d="M11.98 6.898c-.277 0-.555.277-.555.555 0 .334.222.556.555.556.334 0 .556-.222.556-.556 0-.333-.222-.555-.556-.555zM13.091 4.676c-.277 0-.555.277-.555.555 0 .333.222.556.555.556.334 0 .556-.223.556-.556 0-.333-.222-.555-.556-.555zM11.98 5.787c-.277 0-.555.277-.555.555 0 .333.222.556.555.556.334 0 .556-.223.556-.556 0-.333-.222-.555-.556-.555z"/>
        <path d="M11.98 6.898c-.277 0-.555.277-.555.555 0 .334.222.556.555.556.333 0 .556-.222.556-.556 0-.333-.223-.555-.556-.555zM10.87 6.898c-.279 0-.556.277-.556.555 0 .334.222.556.555.556.333 0 .556-.222.556-.556 0-.333-.223-.555-.556-.555zM9.758 6.898c-.278 0-.556.277-.556.555 0 .334.223.556.556.556.333 0 .556-.222.556-.556 0-.333-.222-.555-.556-.555z"/>
        <path d="M8.647 6.898c-.278 0-.556.277-.556.555 0 .334.223.556.556.556.333 0 .555-.222.555-.556 0-.333-.222-.555-.555-.555zM9.758 5.787c-.278 0-.556.277-.556.555 0 .333.223.556.556.556.333 0 .556-.223.556-.556 0-.333-.222-.555-.556-.555z"/>
        <path d="M8.647 5.787c-.278 0-.556.277-.556.555 0 .333.223.556.556.556.333 0 .555-.223.555-.556 0-.333-.222-.555-.555-.555zM8.647 6.898c-.278 0-.556.277-.556.555 0 .334.222.556.556.556.333 0 .555-.222.555-.556 0-.333-.222-.555-.555-.555zM14.202 5.787c-.278 0-.555.278-.555.555 0 .333.222.556.555.556.334 0 .556-.223.556-.556 0-.333-.222-.555-.556-.555zM14.202 2.453c-.278 0-.555.278-.555.556 0 .333.222.555.555.555.334 0 .556-.222.556-.555 0-.333-.222-.556-.556-.556zM13.091 3.564c-.277 0-.555.278-.555.556 0 .333.222.556.555.556.334 0 .556-.223.556-.556 0-.333-.222-.556-.556-.556z"/>
        <path d="M11.98 3.564c-.277 0-.555.278-.555.556 0 .333.222.556.555.556.334 0 .556-.223.556-.556 0-.333-.222-.556-.556-.556zM11.98 5.787c-.277 0-.555.278-.555.555 0 .333.222.556.555.556.333 0 .556-.223.556-.556 0-.333-.223-.555-.556-.555zM10.87 5.787c-.279 0-.556.278-.556.555 0 .333.222.556.555.556.333 0 .556-.223.556-.556 0-.333-.223-.555-.556-.555zM11.98 2.453c-.277 0-.555.278-.555.556 0 .333.222.555.555.555.333 0 .556-.222.556-.555 0-.333-.223-.556-.556-.556zM10.87 3.564c-.279 0-.556.278-.556.556 0 .334.222.556.555.556.333 0 .556-.222.556-.556 0-.333-.223-.556-.556-.556zM9.758 3.564c-.278 0-.556.278-.556.556 0 .333.223.556.556.556.333 0 .556-.223.556-.556 0-.333-.222-.556-.556-.556z"/>
        <path d="M8.647 3.564c-.278 0-.556.278-.556.556 0 .333.223.556.556.556.333 0 .555-.223.555-.556 0-.333-.222-.556-.555-.556zM8.647 5.787c-.278 0-.556.278-.556.555 0 .333.222.556.556.556.333 0 .555-.223.555-.556 0-.333-.222-.555-.555-.555zM8.647 2.453c-.278 0-.556.278-.556.556 0 .333.222.555.556.555.333 0 .555-.222.555-.555 0-.333-.222-.556-.555-.556zM14.202.231c-.277 0-.555.278-.555.556 0 .333.222.555.555.555.334 0 .556-.222.556-.555 0-.333-.222-.556-.556-.556zM14.202 1.342c-.278 0-.555.278-.555.556 0 .333.222.555.555.555.334 0 .556-.222.556-.555 0-.333-.222-.556-.556-.556zM13.091 1.342c-.277 0-.555.278-.555.556 0 .333.222.555.555.555.334 0 .556-.222.556-.555 0-.333-.222-.556-.556-.556z"/>
        <path d="M11.98 1.342c-.277 0-.555.278-.555.556 0 .333.222.555.555.555.334 0 .556-.222.556-.555 0-.333-.222-.556-.556-.556zM13.091.231c-.277 0-.555.278-.555.556 0 .333.222.555.555.555.334 0 .556-.222.556-.555 0-.333-.222-.556-.556-.556z"/>
        <path d="M11.98.231c-.277 0-.555.278-.555.556 0 .333.222.555.555.555.334 0 .556-.222.556-.555 0-.333-.222-.556-.556-.556zM11.98 1.342c-.277 0-.555.278-.555.556 0 .333.222.555.555.555.333 0 .556-.222.556-.555 0-.333-.223-.556-.556-.556zM10.87 1.342c-.279 0-.556.278-.556.556 0 .333.222.555.555.555.333 0 .556-.222.556-.555 0-.333-.223-.556-.556-.556zM9.758 1.342c-.278 0-.556.278-.556.556 0 .333.223.555.556.555.333 0 .556-.222.556-.555 0-.333-.222-.556-.556-.556z"/>
        <path d="M8.647 1.342c-.278 0-.556.278-.556.556 0 .333.223.555.556.555.333 0 .555-.222.555-.555 0-.333-.222-.556-.555-.556zM9.758.231c-.278 0-.556.278-.556.556 0 .333.223.555.556.555.333 0 .556-.222.556-.555 0-.333-.222-.556-.556-.556z"/>
        <path d="M8.647.231c-.278 0-.556.278-.556.556 0 .333.223.555.556.555.333 0 .555-.222.555-.555 0-.333-.222-.556-.555-.556zM8.647 1.342c-.278 0-.556.278-.556.556 0 .333.222.555.556.555.333 0 .555-.222.555-.555 0-.333-.222-.556-.555-.556z"/>
        <path d="M15.87.49c0-.155-.105-.259-.26-.259H.573c-.156 0-.26.104-.26.26v15.036c0 .156.104.26.26.26H8.09c.156 0 .26-.104.26-.26v-3.11h6.222c.726 0 1.296-.804 1.296-1.816V.491zM8.35.75h7v8.393a1.279 1.279 0 0 0-.264-.212l-.023-.013a1.04 1.04 0 0 0-.06-.03c-.007-.005-.015-.008-.022-.012a1.418 1.418 0 0 0-.036-.015l-.014-.006a.993.993 0 0 0-.272-.064l-.026-.002a1.01 1.01 0 0 0-.06-.002H8.35V.75zM7.055 11.898c-.246 0-.474-.21-.619-.528a1.876 1.876 0 0 1-.159-.769c0-.153.018-.3.05-.439.112-.493.404-.857.728-.857h6.606c-.238.328-.384.786-.384 1.296 0 .511.146.969.384 1.297H7.054zm.778 3.37h-7V.75h7v8.037h-.778c-.726 0-1.296.803-1.296 1.814 0 1.012.57 1.815 1.296 1.815h.778v2.852zm6.74-3.37c-.246 0-.474-.21-.618-.528a1.978 1.978 0 0 1-.11-1.208c.112-.492.404-.856.728-.857.281 0 .538.273.675.667.065.188.104.403.104.63 0 .7-.363 1.296-.778 1.296z"/>
    </g>
</svg>
